<?xml version="1.0" encoding="utf-8"?>
<!-- Generator: Adobe Illustrator 26.0.1, SVG Export Plug-In . SVG Version: 6.00 Build 0)  -->
<svg version="1.1" id="Слой_1" xmlns="http://www.w3.org/2000/svg" xmlns:xlink="http://www.w3.org/1999/xlink" x="0px" y="0px"
	 viewBox="0 0 1000 1000" style="enable-background:new 0 0 1000 1000;" xml:space="preserve">
<style type="text/css">
	.st0{fill:#FFFFFF;stroke:#FFFFFF;stroke-miterlimit:10;}
	.st1{fill:#FFFFFF;stroke:#FFFFFF;stroke-width:10;stroke-miterlimit:10;}
</style>
<path class="st0" d="M671.6,297.8H358c-34.3,0-62,27.8-62,62v313.6c0,34.3,27.8,62,62,62h313.6c34.3,0,62-27.8,62-62V359.9
	C733.7,325.6,705.9,297.8,671.6,297.8z M685.6,663.6c0,13.1-10.6,23.8-23.8,23.8H367.9c-13.1,0-23.8-10.6-23.8-23.8V369.7
	c0-13.1,10.6-23.8,23.8-23.8h293.9c13.1,0,23.8,10.6,23.8,23.8V663.6z"/>
<path class="st1" d="M780.6,517H546.2c-25.6,0-46.4,20.8-46.4,46.4v234.5c0,25.6,20.8,46.4,46.4,46.4h234.5
	c25.6,0,46.4-20.8,46.4-46.4V563.4C827,537.7,806.2,517,780.6,517z M791.1,790.4c0,9.8-8,17.8-17.8,17.8H553.5
	c-9.8,0-17.8-8-17.8-17.8V570.7c0-9.8,8-17.8,17.8-17.8h219.7c9.8,0,17.8,8,17.8,17.8V790.4z"/>
</svg>
