<?xml version="1.0" encoding="utf-8"?>
<!-- Generator: Adobe Illustrator 26.0.1, SVG Export Plug-In . SVG Version: 6.00 Build 0)  -->
<svg version="1.1" id="Слой_1" xmlns="http://www.w3.org/2000/svg" xmlns:xlink="http://www.w3.org/1999/xlink" x="0px" y="0px"
	 viewBox="0 0 1000 1000" style="enable-background:new 0 0 1000 1000;" xml:space="preserve">
<style type="text/css">
	.st0{fill:#FFFFFF;}
</style>
<g>
	<path class="st0" d="M183,252.5L183,252.5l60.8,0v-60.8h0C210.2,191.7,183,218.9,183,252.5z"/>
	<rect x="183" y="270.9" class="st0" width="60.8" height="60.8"/>
	<rect x="183" y="350.1" class="st0" width="60.8" height="60.8"/>
	<rect x="183" y="429.3" class="st0" width="60.8" height="60.8"/>
	<rect x="183" y="508.5" class="st0" width="60.8" height="60.8"/>
	<rect x="183" y="587.7" class="st0" width="60.8" height="60.8"/>
	<rect x="183" y="666.9" class="st0" width="60.8" height="60.8"/>
	<path class="st0" d="M183,746.1c0,33.6,27.2,60.8,60.8,60.8h0v-60.8L183,746.1L183,746.1z"/>
	<rect x="265" y="191.7" class="st0" width="60.8" height="60.8"/>
	<rect x="265" y="270.9" class="st0" width="60.8" height="60.8"/>
	<rect x="265" y="350.1" class="st0" width="60.8" height="60.8"/>
	<rect x="265" y="429.3" class="st0" width="60.8" height="60.8"/>
	<rect x="265" y="508.5" class="st0" width="60.8" height="60.8"/>
	<rect x="265" y="666.9" class="st0" width="60.8" height="60.8"/>
	<rect x="265" y="746.1" class="st0" width="60.8" height="60.8"/>
	<rect x="347.1" y="193.1" class="st0" width="60.8" height="60.8"/>
	<rect x="347.1" y="272.3" class="st0" width="60.8" height="60.8"/>
	<rect x="347.1" y="351.5" class="st0" width="60.8" height="60.8"/>
	<rect x="347.1" y="430.7" class="st0" width="60.8" height="60.8"/>
	<rect x="347.1" y="509.9" class="st0" width="60.8" height="60.8"/>
	<rect x="347.1" y="668.3" class="st0" width="60.8" height="60.8"/>
	<rect x="347.1" y="747.5" class="st0" width="60.8" height="60.8"/>
	<rect x="429.1" y="193.1" class="st0" width="60.8" height="60.8"/>
	<rect x="429.1" y="272.3" class="st0" width="60.8" height="60.8"/>
	<rect x="429.1" y="351.5" class="st0" width="60.8" height="60.8"/>
	<rect x="429.1" y="430.7" class="st0" width="60.8" height="60.8"/>
	<rect x="429.1" y="509.9" class="st0" width="60.8" height="60.8"/>
	<rect x="429.1" y="589.1" class="st0" width="60.8" height="60.8"/>
	<rect x="429.1" y="668.3" class="st0" width="60.8" height="60.8"/>
	<rect x="429.1" y="747.5" class="st0" width="60.8" height="60.8"/>
	<rect x="511.1" y="193.1" class="st0" width="60.8" height="60.8"/>
	<rect x="511.1" y="272.3" class="st0" width="60.8" height="60.8"/>
	<rect x="511.1" y="351.5" class="st0" width="60.8" height="60.8"/>
	<rect x="511.1" y="430.7" class="st0" width="60.8" height="60.8"/>
	<rect x="511.1" y="509.9" class="st0" width="60.8" height="60.8"/>
	<rect x="511.1" y="589.1" class="st0" width="60.8" height="60.8"/>
	<rect x="511.1" y="668.3" class="st0" width="60.8" height="60.8"/>
	<rect x="511.1" y="747.5" class="st0" width="60.8" height="60.8"/>
	<rect x="593.1" y="193.1" class="st0" width="60.8" height="60.8"/>
	<rect x="593.1" y="272.3" class="st0" width="60.8" height="60.8"/>
	<rect x="593.1" y="351.5" class="st0" width="60.8" height="60.8"/>
	<rect x="593.1" y="430.7" class="st0" width="60.8" height="60.8"/>
	<rect x="593.1" y="509.9" class="st0" width="60.8" height="60.8"/>
	<rect x="593.1" y="668.3" class="st0" width="60.8" height="60.8"/>
	<rect x="593.1" y="747.5" class="st0" width="60.8" height="60.8"/>
	<rect x="675.2" y="193.1" class="st0" width="60.8" height="60.8"/>
	<rect x="675.2" y="272.3" class="st0" width="60.8" height="60.8"/>
	<rect x="675.2" y="351.5" class="st0" width="60.8" height="60.8"/>
	<rect x="675.2" y="430.7" class="st0" width="60.8" height="60.8"/>
	<rect x="675.2" y="509.9" class="st0" width="60.8" height="60.8"/>
	<rect x="675.2" y="668.3" class="st0" width="60.8" height="60.8"/>
	<rect x="675.2" y="747.5" class="st0" width="60.8" height="60.8"/>
	<path class="st0" d="M757.2,193.1L757.2,193.1l0,60.8H818v0C818,220.3,790.8,193.1,757.2,193.1z"/>
	<rect x="757.2" y="272.3" class="st0" width="60.8" height="60.8"/>
	<rect x="757.2" y="351.5" class="st0" width="60.8" height="60.8"/>
	<rect x="757.2" y="430.7" class="st0" width="60.8" height="60.8"/>
	<rect x="757.2" y="509.9" class="st0" width="60.8" height="60.8"/>
	<rect x="757.2" y="589.1" class="st0" width="60.8" height="60.8"/>
	<rect x="757.2" y="668.3" class="st0" width="60.8" height="60.8"/>
	<path class="st0" d="M757.2,808.3L757.2,808.3c33.6,0,60.8-27.2,60.8-60.8v0h-60.8V808.3z"/>
</g>
</svg>
